<?xml version="1.0" encoding="UTF-8"?>
<svg id="Layer_1" data-name="Layer 1" xmlns="http://www.w3.org/2000/svg" xmlns:xlink="http://www.w3.org/1999/xlink" viewBox="0 0 1485.14 1394.12">
  <defs>
    <linearGradient id="linear-gradient" x1="66.69" y1="625.24" x2="1395.37" y2="625.24" gradientUnits="userSpaceOnUse">
      <stop offset="0" stop-color="#6366f1"/>
      <stop offset=".5" stop-color="#a855f7"/>
      <stop offset="1" stop-color="#ec4899"/>
    </linearGradient>
  </defs>
  <g>
    <path d="M66.69,1006.79c0-47.45,32.06-80.8,76.95-80.8s75.67,33.35,75.67,80.8-29.5,80.8-76.95,80.8c-44.89,0-75.67-34.63-75.67-80.8Z" style="stroke-width: 0px;"/>
    <path d="M343.7,958.06c33.35,21.8,92.34,44.89,148.77,44.89,82.08,0,120.56-41.04,120.56-92.34,0-53.87-32.06-83.36-115.43-114.14-111.58-39.76-164.16-101.32-164.16-175.71,0-100.04,80.8-182.12,214.18-182.12,62.84,0,117.99,17.96,152.62,38.48l-28.22,82.08c-24.37-15.39-69.26-35.91-126.97-35.91-66.69,0-103.88,38.48-103.88,84.65,0,51.3,37.19,74.39,117.99,105.17,107.73,41.04,162.88,94.91,162.88,187.25,0,109.01-84.65,185.97-232.14,185.97-67.97,0-130.82-16.67-174.42-42.32l28.22-85.93Z" style="stroke-width: 0px;"/>
    <path d="M866.97,162.89h112.86v387.33h2.57c17.96-32.06,46.17-60.28,80.8-79.52,33.35-19.24,73.1-32.06,115.43-32.06,83.36,0,216.75,51.3,216.75,265.48v369.37h-112.86v-356.54c0-100.04-37.19-184.68-143.64-184.68-73.1,0-130.82,51.3-151.34,112.86-6.41,15.39-7.7,32.06-7.7,53.87v374.5h-112.86V162.89Z" style="stroke-width: 0px;"/>
  </g>
  <g>
    <path d="M66.69,1006.79c0-47.45,32.06-80.8,76.95-80.8s75.67,33.35,75.67,80.8-29.5,80.8-76.95,80.8c-44.89,0-75.67-34.63-75.67-80.8Z" style="fill: url(#linear-gradient); stroke-width: 0px;"/>
    <path d="M343.7,958.06c33.35,21.8,92.34,44.89,148.77,44.89,82.08,0,120.56-41.04,120.56-92.34,0-53.87-32.06-83.36-115.43-114.14-111.58-39.76-164.16-101.32-164.16-175.71,0-100.04,80.8-182.12,214.18-182.12,62.84,0,117.99,17.96,152.62,38.48l-28.22,82.08c-24.37-15.39-69.26-35.91-126.97-35.91-66.69,0-103.88,38.48-103.88,84.65,0,51.3,37.19,74.39,117.99,105.17,107.73,41.04,162.88,94.91,162.88,187.25,0,109.01-84.65,185.97-232.14,185.97-67.97,0-130.82-16.67-174.42-42.32l28.22-85.93Z" style="fill: url(#linear-gradient); stroke-width: 0px;"/>
    <path d="M866.97,162.89h112.86v387.33h2.57c17.96-32.06,46.17-60.28,80.8-79.52,33.35-19.24,73.1-32.06,115.43-32.06,83.36,0,216.75,51.3,216.75,265.48v369.37h-112.86v-356.54c0-100.04-37.19-184.68-143.64-184.68-73.1,0-130.82,51.3-151.34,112.86-6.41,15.39-7.7,32.06-7.7,53.87v374.5h-112.86V162.89Z" style="fill: url(#linear-gradient); stroke-width: 0px;"/>
  </g>
</svg>